<mxfile host="app.diagrams.net" agent="Mozilla/5.0 (Windows NT 10.0; Win64; x64; rv:128.0) Gecko/20100101 Firefox/128.0" version="26.2.4">
  <diagram id="Ht1M8jgEwFfnCIfOTk4-" name="Page-1">
    <mxGraphModel dx="466" dy="1613" grid="1" gridSize="10" guides="1" tooltips="1" connect="1" arrows="1" fold="1" page="1" pageScale="1" pageWidth="1169" pageHeight="827" math="0" shadow="0">
      <root>
        <mxCell id="0" />
        <mxCell id="1" parent="0" />
        <mxCell id="UEzPUAAOIrF-is8g5C7q-175" value="z" style="points=[[0,0],[0.25,0],[0.5,0],[0.75,0],[1,0],[1,0.25],[1,0.5],[1,0.75],[1,1],[0.75,1],[0.5,1],[0.25,1],[0,1],[0,0.75],[0,0.5],[0,0.25]];outlineConnect=0;gradientColor=none;html=1;whiteSpace=wrap;fontSize=12;fontStyle=0;shape=mxgraph.aws4.group;grIcon=mxgraph.aws4.group_aws_cloud_alt;strokeColor=#232F3E;fillColor=none;verticalAlign=top;align=left;spacingLeft=30;fontColor=#232F3E;dashed=0;labelBackgroundColor=#ffffff;container=1;pointerEvents=0;collapsible=0;recursiveResize=0;" parent="1" vertex="1">
          <mxGeometry x="210" y="-710" width="630" height="260" as="geometry" />
        </mxCell>
        <mxCell id="NJIYClfB9Od_o8uXMgCy-2" value="" style="shape=mxgraph.signs.nature.snowflake;html=1;pointerEvents=1;fillColor=#000000;strokeColor=none;verticalLabelPosition=bottom;verticalAlign=top;align=center;" vertex="1" parent="UEzPUAAOIrF-is8g5C7q-175">
          <mxGeometry x="480.5" y="68.63" width="119" height="110.75" as="geometry" />
        </mxCell>
        <mxCell id="NJIYClfB9Od_o8uXMgCy-4" value="&lt;div&gt;EXTERNAL &lt;br&gt;&lt;/div&gt;&lt;div&gt;STAGE&lt;/div&gt;" style="whiteSpace=wrap;html=1;aspect=fixed;" vertex="1" parent="UEzPUAAOIrF-is8g5C7q-175">
          <mxGeometry x="306" y="80.57" width="69" height="69" as="geometry" />
        </mxCell>
        <mxCell id="NJIYClfB9Od_o8uXMgCy-9" value="SNOWFLAKE " style="text;html=1;align=center;verticalAlign=middle;resizable=0;points=[];autosize=1;strokeColor=none;fillColor=none;" vertex="1" parent="UEzPUAAOIrF-is8g5C7q-175">
          <mxGeometry x="499.5" y="179.38" width="100" height="30" as="geometry" />
        </mxCell>
        <mxCell id="UEzPUAAOIrF-is8g5C7q-177" value="Amazon S3&lt;br&gt;Bucket&lt;br&gt;" style="outlineConnect=0;fontColor=#232F3E;gradientColor=none;fillColor=#277116;strokeColor=none;dashed=0;verticalLabelPosition=bottom;verticalAlign=top;align=center;html=1;fontSize=12;fontStyle=0;aspect=fixed;pointerEvents=1;shape=mxgraph.aws4.bucket;labelBackgroundColor=#ffffff;" parent="UEzPUAAOIrF-is8g5C7q-175" vertex="1">
          <mxGeometry x="120" y="71.63999999999999" width="83.52" height="86.86" as="geometry" />
        </mxCell>
        <mxCell id="NJIYClfB9Od_o8uXMgCy-15" value="" style="endArrow=classic;html=1;rounded=0;" edge="1" parent="UEzPUAAOIrF-is8g5C7q-175">
          <mxGeometry width="50" height="50" relative="1" as="geometry">
            <mxPoint x="210.0022221213428" y="113.63429587278029" as="sourcePoint" />
            <mxPoint x="286.49" y="116.5" as="targetPoint" />
            <Array as="points" />
          </mxGeometry>
        </mxCell>
        <mxCell id="NJIYClfB9Od_o8uXMgCy-16" value="" style="endArrow=classic;html=1;rounded=0;exitX=1;exitY=0.5;exitDx=0;exitDy=0;entryX=-0.008;entryY=0.423;entryDx=0;entryDy=0;entryPerimeter=0;" edge="1" parent="UEzPUAAOIrF-is8g5C7q-175" source="NJIYClfB9Od_o8uXMgCy-4" target="NJIYClfB9Od_o8uXMgCy-2">
          <mxGeometry width="50" height="50" relative="1" as="geometry">
            <mxPoint x="375" y="116.63" as="sourcePoint" />
            <mxPoint x="470" y="120.5" as="targetPoint" />
            <Array as="points" />
          </mxGeometry>
        </mxCell>
        <mxCell id="NJIYClfB9Od_o8uXMgCy-17" value="" style="sketch=0;pointerEvents=1;shadow=0;dashed=0;html=1;strokeColor=none;fillColor=#505050;labelPosition=center;verticalLabelPosition=bottom;verticalAlign=top;outlineConnect=0;align=center;shape=mxgraph.office.users.csv_file;" vertex="1" parent="UEzPUAAOIrF-is8g5C7q-175">
          <mxGeometry x="20" y="102.5" width="59" height="43" as="geometry" />
        </mxCell>
        <mxCell id="NJIYClfB9Od_o8uXMgCy-18" value="CSV file " style="text;html=1;align=center;verticalAlign=middle;resizable=0;points=[];autosize=1;strokeColor=none;fillColor=none;" vertex="1" parent="UEzPUAAOIrF-is8g5C7q-175">
          <mxGeometry x="9" y="145.5" width="70" height="30" as="geometry" />
        </mxCell>
        <mxCell id="NJIYClfB9Od_o8uXMgCy-19" value="&lt;font style=&quot;font-size: 18px;&quot;&gt;LOAD DATA from AWS S3 bucket to snowflake &lt;/font&gt;" style="text;html=1;align=center;verticalAlign=middle;resizable=0;points=[];autosize=1;strokeColor=none;fillColor=none;" vertex="1" parent="1">
          <mxGeometry x="305" y="-775" width="400" height="40" as="geometry" />
        </mxCell>
        <mxCell id="NJIYClfB9Od_o8uXMgCy-21" value="" style="rounded=0;whiteSpace=wrap;html=1;" vertex="1" parent="1">
          <mxGeometry x="221.76" y="-331.57" width="120" height="190" as="geometry" />
        </mxCell>
        <mxCell id="NJIYClfB9Od_o8uXMgCy-23" value="Amazon S3&lt;br&gt;Bucket&lt;br&gt;" style="outlineConnect=0;fontColor=#232F3E;gradientColor=none;fillColor=#277116;strokeColor=none;dashed=0;verticalLabelPosition=bottom;verticalAlign=top;align=center;html=1;fontSize=12;fontStyle=0;aspect=fixed;pointerEvents=1;shape=mxgraph.aws4.bucket;labelBackgroundColor=#ffffff;" vertex="1" parent="1">
          <mxGeometry x="240" y="-300" width="83.52" height="86.86" as="geometry" />
        </mxCell>
        <mxCell id="NJIYClfB9Od_o8uXMgCy-25" value="" style="rounded=0;whiteSpace=wrap;html=1;" vertex="1" parent="1">
          <mxGeometry x="660" y="-331.57" width="120" height="190" as="geometry" />
        </mxCell>
        <mxCell id="NJIYClfB9Od_o8uXMgCy-26" value="" style="shape=mxgraph.signs.nature.snowflake;html=1;pointerEvents=1;fillColor=#000000;strokeColor=none;verticalLabelPosition=bottom;verticalAlign=top;align=center;" vertex="1" parent="1">
          <mxGeometry x="665" y="-310" width="110" height="93.89" as="geometry" />
        </mxCell>
        <mxCell id="NJIYClfB9Od_o8uXMgCy-27" value="SNOWFLAKE " style="text;html=1;align=center;verticalAlign=middle;resizable=0;points=[];autosize=1;strokeColor=none;fillColor=none;" vertex="1" parent="1">
          <mxGeometry x="670" y="-193.14" width="100" height="30" as="geometry" />
        </mxCell>
        <mxCell id="NJIYClfB9Od_o8uXMgCy-29" value="" style="endArrow=classic;html=1;rounded=0;" edge="1" parent="1">
          <mxGeometry relative="1" as="geometry">
            <mxPoint x="351.5" y="-280" as="sourcePoint" />
            <mxPoint x="658.5" y="-283" as="targetPoint" />
            <Array as="points">
              <mxPoint x="461.5" y="-280" />
            </Array>
          </mxGeometry>
        </mxCell>
        <mxCell id="NJIYClfB9Od_o8uXMgCy-31" value="ARN" style="text;html=1;align=center;verticalAlign=middle;resizable=0;points=[];autosize=1;strokeColor=none;fillColor=none;" vertex="1" parent="1">
          <mxGeometry x="490" y="-310" width="50" height="30" as="geometry" />
        </mxCell>
        <mxCell id="NJIYClfB9Od_o8uXMgCy-32" value="" style="endArrow=classic;html=1;rounded=0;entryX=1.017;entryY=0.537;entryDx=0;entryDy=0;entryPerimeter=0;" edge="1" parent="1" target="NJIYClfB9Od_o8uXMgCy-21">
          <mxGeometry relative="1" as="geometry">
            <mxPoint x="650" y="-230" as="sourcePoint" />
            <mxPoint x="575" y="-230" as="targetPoint" />
          </mxGeometry>
        </mxCell>
        <mxCell id="NJIYClfB9Od_o8uXMgCy-35" value="STORAGE AWS IAM USER ARN" style="text;html=1;align=center;verticalAlign=middle;resizable=0;points=[];autosize=1;strokeColor=none;fillColor=none;" vertex="1" parent="1">
          <mxGeometry x="415" y="-223.14" width="200" height="30" as="geometry" />
        </mxCell>
        <mxCell id="NJIYClfB9Od_o8uXMgCy-36" value="" style="endArrow=classic;html=1;rounded=0;entryX=1.017;entryY=0.537;entryDx=0;entryDy=0;entryPerimeter=0;" edge="1" parent="1">
          <mxGeometry relative="1" as="geometry">
            <mxPoint x="650" y="-179" as="sourcePoint" />
            <mxPoint x="361" y="-177.14" as="targetPoint" />
          </mxGeometry>
        </mxCell>
        <mxCell id="NJIYClfB9Od_o8uXMgCy-37" value="EXTERNAL ID " style="text;html=1;align=center;verticalAlign=middle;resizable=0;points=[];autosize=1;strokeColor=none;fillColor=none;" vertex="1" parent="1">
          <mxGeometry x="470" y="-170" width="100" height="30" as="geometry" />
        </mxCell>
        <mxCell id="NJIYClfB9Od_o8uXMgCy-40" value="&lt;div align=&quot;left&quot;&gt;NOTE :&amp;nbsp; INTERNAL STAGE USED FROM LOCAL TO SNOWFLAKE, EXTERNAL STORAGE IS USED FROM CLOUD TO SNOWFLAKE &lt;/div&gt;" style="rounded=0;whiteSpace=wrap;html=1;align=left;" vertex="1" parent="1">
          <mxGeometry x="210" y="-430" width="630" height="60" as="geometry" />
        </mxCell>
      </root>
    </mxGraphModel>
  </diagram>
</mxfile>
